<svg width="37" height="40" viewBox="0 0 37 40" fill="none" xmlns="http://www.w3.org/2000/svg">
<path d="M30.7574 1.31461C29.4029 2.16178 30.3623 2.33121 31.8861 1.48404C32.6763 1.08869 32.902 0.749826 32.4505 0.749826C31.999 0.749826 31.2089 0.975739 30.7574 1.31461Z" fill="#060D0D"/>
<path d="M25.6764 5.833C24.0398 7.24495 22.5724 8.03565 21.5565 8.09212C20.5971 8.09212 19.2425 8.82634 17.888 10.0689C15.7998 12.0456 15.7998 12.0456 17.493 11.3679C18.4524 11.029 19.4119 10.5207 19.7505 10.2383C20.0327 10.0124 20.5971 9.78647 20.9921 9.78647C21.5001 9.78647 21.4436 10.1253 20.7664 10.916C20.202 11.5373 19.3554 12.0456 18.8475 12.0456C18.3395 12.0456 17.7752 12.5539 17.6059 13.1752C17.2108 14.6436 18.0009 14.5871 20.1455 13.0622L21.8387 11.8762L21.1614 13.2316C20.7664 13.9658 19.6376 15.5472 18.6782 16.7333C17.1543 18.6535 17.0415 19.0489 17.6059 20.5173C18.1702 22.0422 18.1138 22.2117 17.0415 22.2681C15.9127 22.3246 15.9692 22.3811 17.3801 23.0024L18.9604 23.6801L17.493 24.3578C16.7028 24.6967 16.082 25.2615 16.082 25.6003C16.082 25.9392 16.3078 26.1086 16.5335 25.9392C17.4365 25.4309 20.9357 26.7299 22.1773 27.9724C22.7981 28.7066 23.8704 31.1917 24.4913 33.5073C25.5071 37.1219 26.9745 39.9458 27.4825 39.0986C27.5953 38.9857 28.2726 38.0255 28.9498 37.0089C31.1509 33.8462 33.0134 29.3844 33.0134 27.1253C33.0134 25.9957 33.2955 25.0356 33.6342 25.0356C34.0292 25.0356 34.1421 24.5273 33.9164 23.7366C33.6906 23.0588 33.4649 22.2117 33.4084 21.9293C33.2955 21.5904 33.0698 21.0256 32.7876 20.6303C32.449 20.0655 32.9569 19.2183 34.3679 17.8628C36.2867 15.9426 36.7947 14.3612 36.061 12.4409C35.8917 11.9326 35.3273 11.7067 34.6501 11.8762C33.5777 12.1586 33.5777 12.1586 34.4807 9.84295C35.158 8.1486 35.2709 7.132 34.8758 6.22834C34.4243 5.21174 34.255 5.43765 33.9728 7.80973C33.2955 12.8928 33.2955 12.8928 31.6024 12.8363C30.6994 12.8363 29.4013 13.4011 28.5548 14.1918C27.7646 14.926 27.031 15.2648 26.9181 14.926C26.6359 14.0788 28.2161 11.3679 30.135 9.56056C32.1668 7.58382 32.5054 5.0423 30.8123 4.13866C29.0627 3.235 28.3855 3.46092 25.6764 5.833ZM30.9816 7.35791C30.6994 8.26156 29.5142 9.4476 28.2161 10.1818C25.1121 11.9326 23.7576 11.8197 26.523 10.0124C27.7646 9.22169 28.2726 8.76986 27.6518 8.9393C24.4913 10.0689 24.2091 10.0124 25.6764 8.71338C26.6923 7.75326 26.8052 7.52734 26.0715 7.75326C24.1526 8.37452 25.7329 6.84961 28.1597 5.77652C30.8687 4.59048 31.8282 5.09878 30.9816 7.35791ZM33.352 17.4675C31.3767 19.2748 30.8123 20.8562 31.8282 21.9857C32.5054 22.6635 31.6024 29.2714 30.5301 31.9259C29.2885 34.9192 28.5548 35.0322 29.1192 32.2083C29.4578 30.6269 29.4013 28.3678 28.8934 25.6003C28.2161 21.6469 28.1033 21.3645 26.5795 21.0821C25.0556 20.7997 25.0556 20.7432 26.0151 19.8961C26.6359 19.3878 27.8775 18.5406 28.7805 18.0888C30.135 17.3545 30.2479 17.1851 29.3449 17.1286C28.329 17.0721 28.3855 17.0157 29.6271 16.225C30.9252 15.4343 30.9252 15.4343 29.7964 15.7167C29.0627 15.9426 28.4983 15.8296 28.4983 15.4908C28.4983 14.926 31.2073 13.9094 33.5777 13.627C35.8352 13.3446 35.7224 15.2648 33.352 17.4675Z" fill="#060D0D"/>
<path d="M10.836 14.4742C8.91717 16.3945 7.11116 17.6935 5.64378 18.1453C4.40214 18.4842 2.65257 19.4443 1.69313 20.235L0 21.647L2.0882 23.6237C4.57146 25.9393 7.73197 26.3346 9.87661 24.5838C11.2876 23.3978 11.1182 22.4941 9.31223 22.0423C8.29635 21.8164 8.18347 21.9294 8.5221 22.946C8.91717 24.132 8.86073 24.132 7.33691 23.1154C5.75665 22.0988 5.75665 22.0988 6.09528 23.2848C6.49034 24.9792 5.58734 24.7533 3.49914 22.6636L1.69313 20.8563L3.66845 20.0656C4.79721 19.6137 6.54678 19.3878 7.78841 19.5573C10.0459 19.8397 10.0459 19.8397 10.6667 16.9593C10.8925 16.1121 11.2311 15.4908 11.4569 15.6603C11.6826 15.7732 12.4727 14.9261 13.15 13.6835C13.8273 12.4975 14.2788 11.4809 14.053 11.4809C13.8837 11.4809 12.4163 12.8364 10.836 14.4742Z" fill="#060D0D"/>
</svg>
