<svg width="29" height="28" viewBox="0 0 29 28" fill="none" xmlns="http://www.w3.org/2000/svg">
<rect x="1.25" y="0.75" width="26.5" height="26.5" rx="1.25" fill="white"/>
<g clip-path="url(#clip0_2197_77192)">
<path d="M14.5 4C20.023 4 24.5 8.47695 24.5 14C24.5 19.523 20.023 24 14.5 24C8.97695 24 4.5 19.523 4.5 14C4.5 8.47695 8.97695 4 14.5 4ZM10.0453 18.641H11.9605V12.4531H10.0453V18.641ZM10.9938 11.643C11.6195 11.643 12.1266 11.1312 12.1266 10.5008C12.1266 9.87031 11.6195 9.35898 10.9938 9.35898C10.368 9.35898 9.86133 9.87031 9.86133 10.5008C9.86133 11.1312 10.368 11.643 10.9938 11.643ZM15.0223 15.393C15.0223 14.523 15.423 14.0043 16.1898 14.0043C16.8938 14.0043 17.2324 14.502 17.2324 15.393V18.641H19.1387V14.723C19.1387 13.0656 18.1992 12.2641 16.8871 12.2641C15.5746 12.2641 15.0223 13.2867 15.0223 13.2867V12.4531H13.1852V18.641H15.0223V15.393Z" fill="black"/>
</g>
<rect x="1.25" y="0.75" width="26.5" height="26.5" rx="1.25" stroke="url(#paint0_linear_2197_77192)" stroke-width="1.5"/>
<defs>
<linearGradient id="paint0_linear_2197_77192" x1="14.5" y1="0" x2="14.5" y2="28" gradientUnits="userSpaceOnUse">
<stop stop-color="#977F4C"/>
<stop offset="1" stop-color="#A48432"/>
</linearGradient>
<clipPath id="clip0_2197_77192">
<rect width="20" height="20" fill="white" transform="translate(4.5 4)"/>
</clipPath>
</defs>
</svg>
