<svg width="29" height="28" viewBox="0 0 29 28" fill="none" xmlns="http://www.w3.org/2000/svg">
<rect x="1.25" y="0.75" width="26.5" height="26.5" rx="1.25" fill="white"/>
<g clip-path="url(#clip0_2197_77196)">
<path fill-rule="evenodd" clip-rule="evenodd" d="M14.5 24C8.98598 24 4.5 19.514 4.5 14C4.5 8.48598 8.98598 4 14.5 4C20.014 4 24.5 8.48598 24.5 14C24.5 19.514 20.014 24 14.5 24ZM16.3384 19.3162C17.7597 18.8233 18.9241 17.7758 19.5709 16.4336H17.2805C17.152 17.2057 16.9619 17.9178 16.7163 18.5319C16.6005 18.8213 16.474 19.0829 16.3384 19.3162ZM9.42918 16.4336C10.0759 17.7758 11.2403 18.8233 12.6616 19.3162C12.526 19.0829 12.3995 18.8213 12.2837 18.5319C12.038 17.9178 11.848 17.2058 11.7195 16.4336H9.42918ZM12.6616 8.68383C11.2403 9.17672 10.0759 10.2242 9.42918 11.5664H11.7195C11.848 10.7943 12.038 10.0822 12.2837 9.46812C12.3995 9.17871 12.526 8.91707 12.6616 8.68383ZM14.5 8.375C14.0899 8.375 13.6087 8.94113 13.2442 9.85234C13.0431 10.3551 12.8837 10.9354 12.7692 11.5664H16.2308C16.1163 10.9354 15.957 10.3551 15.7558 9.85234C15.3913 8.94113 14.9101 8.375 14.5 8.375ZM8.875 14C8.875 14.4829 8.93621 14.9516 9.05117 15.3991H11.5886C11.5475 14.9441 11.5257 14.4759 11.5257 14C11.5257 13.5241 11.5475 13.0559 11.5886 12.6009H9.05117C8.9339 13.058 8.87471 13.5281 8.875 14ZM12.6266 15.3991H16.3734C16.4171 14.947 16.4399 14.4782 16.4399 14C16.4399 13.5218 16.4171 13.053 16.3734 12.6009H12.6266C12.583 13.053 12.5602 13.5218 12.5602 14C12.5602 14.4782 12.5829 14.947 12.6266 15.3991ZM14.5 19.625C14.9101 19.625 15.3913 19.0589 15.7558 18.1477C15.9569 17.6449 16.1163 17.0646 16.2308 16.4336H12.7692C12.8837 17.0646 13.0431 17.6449 13.2442 18.1477C13.6087 19.0589 14.0899 19.625 14.5 19.625ZM20.125 14C20.125 13.5171 20.0638 13.0484 19.9488 12.6009H17.4114C17.4525 13.0559 17.4743 13.5241 17.4743 14C17.4743 14.4759 17.4525 14.9441 17.4114 15.3991H19.9488C20.0661 14.942 20.1253 14.4719 20.125 14ZM19.5708 11.5664C18.9241 10.2242 17.7597 9.17668 16.3384 8.68379C16.4739 8.91707 16.6005 9.17871 16.7162 9.46812C16.9619 10.0822 17.152 10.7942 17.2804 11.5664L19.5708 11.5664ZM21.1595 14C21.1595 17.672 18.172 20.6595 14.5 20.6595C10.8279 20.6595 7.84051 17.672 7.84051 14C7.84051 10.328 10.8279 7.34051 14.5 7.34051C18.1721 7.34051 21.1595 10.328 21.1595 14Z" fill="black"/>
</g>
<rect x="1.25" y="0.75" width="26.5" height="26.5" rx="1.25" stroke="url(#paint0_linear_2197_77196)" stroke-width="1.5"/>
<defs>
<linearGradient id="paint0_linear_2197_77196" x1="14.5" y1="0" x2="14.5" y2="28" gradientUnits="userSpaceOnUse">
<stop stop-color="#977F4C"/>
<stop offset="1" stop-color="#A48432"/>
</linearGradient>
<clipPath id="clip0_2197_77196">
<rect width="20" height="20" fill="white" transform="translate(4.5 4)"/>
</clipPath>
</defs>
</svg>
