<svg width="32" height="32" viewBox="0 0 32 32" fill="none" xmlns="http://www.w3.org/2000/svg">
<path fill-rule="evenodd" clip-rule="evenodd" d="M16 32C7.17756 32 0 24.8224 0 16C0 7.17756 7.17756 0 16 0C24.8224 0 32 7.17756 32 16C32 24.8224 24.8224 32 16 32ZM18.9414 24.5059C21.2155 23.7172 23.0786 22.0413 24.1134 19.8937H20.4487C20.2432 21.1292 19.9391 22.2684 19.5461 23.251C19.3608 23.7141 19.1584 24.1327 18.9414 24.5059ZM7.88669 19.8938C8.9215 22.0413 10.7845 23.7173 13.0586 24.5059C12.8416 24.1327 12.6392 23.7141 12.4539 23.2511C12.0609 22.2685 11.7568 21.1292 11.5513 19.8938H7.88669ZM13.0586 7.49412C10.7845 8.28275 8.9215 9.95875 7.88669 12.1062H11.5513C11.7568 10.8708 12.0609 9.73156 12.4539 8.749C12.6392 8.28594 12.8416 7.86731 13.0586 7.49412ZM16 7C15.3439 7 14.5739 7.90581 13.9908 9.36375C13.669 10.1682 13.4139 11.0966 13.2308 12.1062H18.7693C18.5861 11.0967 18.3311 10.1682 18.0093 9.36375C17.4261 7.90581 16.6561 7 16 7ZM7 16C7 16.7726 7.09794 17.5226 7.28188 18.2386H11.3417C11.2759 17.5105 11.2411 16.7614 11.2411 16C11.2411 15.2386 11.2759 14.4895 11.3417 13.7614H7.28188C7.09424 14.4928 6.99953 15.2449 7 16ZM13.0026 18.2386H18.9974C19.0673 17.5151 19.1038 16.7651 19.1038 16C19.1038 15.2349 19.0674 14.4849 18.9974 13.7614H13.0026C12.9328 14.4849 12.8962 15.2349 12.8962 16C12.8962 16.7651 12.9327 17.5151 13.0026 18.2386ZM16 25C16.6561 25 17.4261 24.0942 18.0093 22.6362C18.3311 21.8318 18.5861 20.9034 18.7693 19.8937H13.2307C13.4139 20.9033 13.6689 21.8318 13.9907 22.6362C14.5739 24.0942 15.3439 25 16 25ZM25 16C25 15.2274 24.9021 14.4774 24.7181 13.7614H20.6583C20.724 14.4895 20.7589 15.2386 20.7589 16C20.7589 16.7614 20.724 17.5105 20.6583 18.2386H24.7181C24.9058 17.5072 25.0005 16.7551 25 16ZM24.1133 12.1062C23.0786 9.95869 21.2155 8.28269 18.9414 7.49406C19.1583 7.86731 19.3608 8.28594 19.546 8.749C19.9391 9.73156 20.2432 10.8707 20.4487 12.1062L24.1133 12.1062ZM26.6552 16C26.6552 21.8752 21.8752 26.6552 16 26.6552C10.1247 26.6552 5.34481 21.8752 5.34481 16C5.34481 10.1248 10.1247 5.34481 16 5.34481C21.8753 5.34481 26.6552 10.1248 26.6552 16Z" fill="black"/>
</svg>
